<svg xmlns="http://www.w3.org/2000/svg" xmlns:xlink="http://www.w3.org/1999/xlink" version="1.1" x="0px" y="0px" viewBox="0 0 100 125" enable-background="new 0 0 100 100" xml:space="preserve" fill="FFFFFF"><g><rect x="60.4" y="25.8" width="6.9" height="6.9"/><rect x="53.5" y="32.7" width="6.9" height="6.9"/><rect x="67.3" y="32.7" width="6.9" height="6.9"/><rect x="60.4" y="39.6" width="6.9" height="6.9"/><rect x="46.5" y="39.6" width="6.9" height="6.9"/><rect x="53.5" y="46.5" width="6.9" height="6.9"/><rect x="39.6" y="46.5" width="6.9" height="6.9"/><rect x="32.7" y="53.5" width="6.9" height="6.9"/><rect x="46.5" y="53.5" width="6.9" height="6.9"/><rect x="25.8" y="60.4" width="6.9" height="6.9"/><polygon points="74.2,39.6 74.2,46.5 74.2,53.5 74.2,53.5 74.2,60.4 74.2,60.4 74.2,63.8 74.2,67.3 81.2,67.3 81.2,63.8 81.2,60.4    81.2,60.4 81.2,53.5 81.2,53.5 81.2,46.5 81.2,39.6  "/><polygon points="88.1,32.7 88.1,39.6 88.1,46.5 88.1,46.5 88.1,53.5 88.1,53.5 88.1,60.4 88.1,60.4 88.1,63.8 88.1,67.3 95,67.3    95,63.8 95,60.4 95,60.4 95,53.5 95,53.5 95,46.5 95,46.5 95,39.6 95,32.7  "/><rect x="39.6" y="60.4" width="6.9" height="6.9"/><rect x="18.8" y="67.3" width="6.9" height="6.9"/><rect x="81.2" y="67.3" width="6.9" height="6.9"/><rect x="32.7" y="67.3" width="6.9" height="6.9"/><rect x="11.9" y="74.2" width="6.9" height="6.9"/><rect x="25.8" y="74.2" width="6.9" height="6.9"/><rect x="5" y="81.2" width="6.9" height="6.9"/><rect x="18.8" y="81.2" width="6.9" height="6.9"/><rect x="11.9" y="88.1" width="6.9" height="6.9"/><polygon points="39.6,11.9 46.5,11.9 46.5,11.9 53.5,11.9 60.4,11.9 67.3,11.9 67.3,5 60.4,5 53.5,5 46.5,5 39.6,5 32.7,5    32.7,11.9 39.6,11.9  "/><rect x="25.8" y="11.9" width="6.9" height="6.9"/><polygon points="67.3,18.8 74.2,18.8 81.2,18.8 88.1,18.8 88.1,11.9 81.2,11.9 74.2,11.9 67.3,11.9  "/><polygon points="60.4,18.8 53.5,18.8 46.5,18.8 39.6,18.8 32.7,18.8 32.7,25.8 39.6,25.8 39.6,25.8 46.5,25.8 46.5,25.8 53.5,25.8    60.4,25.8  "/><polygon points="84.6,18.8 81.2,18.8 81.2,25.8 81.2,26.7 81.2,32.7 88.1,32.7 88.1,26.7 88.1,25.8 88.1,18.8  "/></g></svg>